<?xml version="1.0" encoding="utf-8"?><svg viewBox="0 0 56 56" xmlns="http://www.w3.org/2000/svg" xmlns:xlink="http://www.w3.org/1999/xlink"><style>:root>svg{display:none}:root>svg:target{display:block}</style><svg viewBox="0 0 22 9" id="arrow" xmlns="http://www.w3.org/2000/svg"><defs><style>.acls-1{fill:#fff;fill-rule:evenodd}</style></defs><path class="acls-1" d="M.3 5.472h16.948l-.1 2.857a.292.292 0 000 .41l.172.172a.28.28 0 00.2.086.285.285 0 00.2-.084l4.193-4.211A.292.292 0 0022 4.5a.283.283 0 00-.084-.2L17.723.087a.289.289 0 00-.407 0l-.172.173a.287.287 0 00-.084.2.278.278 0 00.084.2l.113 2.865H.292A.3.3 0 000 3.82v1.37a.292.292 0 00.3.282z"/></svg><svg viewBox="0 0 6.1 10.97" id="arrow-right" xmlns="http://www.w3.org/2000/svg"><defs><style>.bcls-1{fill:#262626;fill-rule:evenodd}</style></defs><path class="bcls-1" d="M.55 10.97a.53.53 0 01-.41-.19.6.6 0 01-.15-.4.631.631 0 01.17-.43l4.55-4.47L.16 1A.607.607 0 01-.01.58.629.629 0 01.14.17a.559.559 0 01.8-.02l4.98 4.9.01.01a.657.657 0 01.12.17.7.7 0 01.05.25.742.742 0 01-.05.25.61.61 0 01-.12.16c0 .01-.01.01-.01.02l-4.98 4.9a.589.589 0 01-.39.16z"/></svg><svg viewBox="0 0 43 42" id="awards" xmlns="http://www.w3.org/2000/svg"><path d="M12.903 32.695c0-1.313.296-2.56.825-3.67L.51 8.577a.918.918 0 01.115-1.14L6.943 1.02a.885.885 0 01.631-.266H34.92c.237 0 .464.096.631.266l6.319 6.418a.92.92 0 01.115 1.14l-13.22 20.446a8.53 8.53 0 01.824 3.67c0 4.673-3.743 8.475-8.342 8.475-4.6 0-8.344-3.802-8.344-8.475zm1.785 0c0 3.674 2.942 6.662 6.559 6.662 3.615 0 6.557-2.988 6.557-6.662 0-3.672-2.942-6.661-6.557-6.661-3.617 0-6.559 2.989-6.559 6.661zm8.549-8.23a8.344 8.344 0 014.477 2.884l11.87-18.362h-6.339zm-8.458 2.883a8.347 8.347 0 014.477-2.883L9.247 8.987H2.91zm6.454-3.127h.027l9.85-15.234H11.382zM3.41 7.174h35.674l-4.535-4.606H7.943zm17.247 28.919V31.19h-.526a.9.9 0 01-.892-.906.9.9 0 01.892-.908h1.419a.9.9 0 01.892.908v5.808a.9.9 0 01-.892.906.9.9 0 01-.893-.906z"/></svg><svg viewBox="0 0.043 20 17.915" id="basket-icon"><svg xmlns="http://www.w3.org/2000/svg" width="20" height="18" viewBox="2 1.998 18.956 16.98"><path paint-order="stroke fill markers" fill-rule="evenodd" d="M7.526 18.978c-.536 0-1.063-.21-1.461-.607a2.066 2.066 0 01-.453-2.26 2.068 2.068 0 011.915-1.28h.006c.55 0 1.07.214 1.46.602.393.394.609.913.609 1.467.002.84-.5 1.593-1.277 1.917-.258.108-.53.16-.799.16zm.007-2.963h-.004a.887.887 0 00-.628 1.518.89.89 0 10.632-1.518zm8.385 2.963c-.537 0-1.064-.21-1.461-.607a2.065 2.065 0 01-.452-2.26 2.065 2.065 0 011.913-1.28c.546-.04 1.08.218 1.468.603.392.393.607.912.607 1.466a2.064 2.064 0 01-1.274 1.917c-.26.108-.532.16-.8.16zm.006-2.963h-.001c-.331.032-.685.215-.823.548a.89.89 0 10.824-.548zm-11.279.163a.592.592 0 01-.536-.843c.579-1.24 1.627-1.973 3.054-2.15L6.108 7.792a.593.593 0 011.163-.227l1.091 5.578h9.423l1.807-6.771H6.29A4.354 4.354 0 012.007 2.68a.591.591 0 111.171-.175 3.165 3.165 0 003.115 2.682h14.07a.592.592 0 01.573.745l-2.123 7.956a.594.594 0 01-.573.44H7.885a.044.044 0 00-.023 0c-1.33 0-2.205.493-2.68 1.51a.593.593 0 01-.537.34z"/></svg></svg><svg viewBox="0 0 56 56" id="burger-menu" xmlns="http://www.w3.org/2000/svg"><path d="M28 0C12.561 0 0 12.561 0 28s12.561 28 28 28 28-12.561 28-28S43.439 0 28 0zm12 41H16a2 2 0 010-4h24a2 2 0 010 4zm0-11H16a2 2 0 010-4h24a2 2 0 010 4zm0-11H16a2 2 0 010-4h24a2 2 0 010 4z"/></svg><svg viewBox="0 0 49.13 43.84" id="credit-card" xmlns="http://www.w3.org/2000/svg"><defs><style>.fcls-1{fill:#a3bbc8;fill-rule:evenodd}</style></defs><path id="fcredit-card" class="fcls-1" d="M1444.43 1042.32a.83.83 0 00-.84.83v8.27a2.164 2.164 0 01-2.16 2.16h-39.34a2.164 2.164 0 01-2.16-2.16v-11.92h27.29a.84.84 0 100-1.68h-27.29v-5.47h9.87a.828.828 0 00.83-.83.837.837 0 00-.83-.84h-9.87v-2.88a2.166 2.166 0 012.16-2.17h25.13a.835.835 0 100-1.67h-25.13a3.839 3.839 0 00-3.83 3.84v23.62a3.837 3.837 0 003.83 3.83h39.34a3.837 3.837 0 003.83-3.83v-8.27a.828.828 0 00-.83-.83zm-17.21-11.64H1413a.837.837 0 00-.83.84.828.828 0 00.83.83h14.22a.837.837 0 00.84-.83.845.845 0 00-.84-.84zm-9.24 11.56h-14.27a.835.835 0 000 1.67h14.27a.835.835 0 100-1.67zm-6.08 3.99h-8.19a.835.835 0 000 1.67h8.19a.835.835 0 000-1.67zm34.63-13.61a.832.832 0 00.84-.84v-4.77a3.038 3.038 0 00-2.39-2.97v-6.02a6.6 6.6 0 10-13.19 0v6.02a3.053 3.053 0 00-2.4 2.97v10.75a3.045 3.045 0 003.04 3.04h11.9a3.039 3.039 0 003.04-3.04v-3.19a.835.835 0 00-1.67 0v3.19a1.379 1.379 0 01-1.37 1.37h-11.9a1.379 1.379 0 01-1.37-1.37v-10.75a1.379 1.379 0 011.37-1.37h11.9a1.379 1.379 0 011.37 1.37v4.77a.83.83 0 00.83.84zm-3.23-8.65h-9.84v-5.95a4.92 4.92 0 119.84 0v5.95zm-4.92 4.32a3.092 3.092 0 00-.83 6.07v2.04a.83.83 0 00.83.84.839.839 0 00.84-.84v-2.04a3.094 3.094 0 00-.84-6.07zm0 4.52a1.425 1.425 0 111.42-1.43 1.428 1.428 0 01-1.42 1.43z" transform="translate(-1398.25 -1011.41)"/></svg><svg viewBox="0 0 49.126 29.35" id="delivery-truck" xmlns="http://www.w3.org/2000/svg"><defs><style>.gcls-1{fill:#a3bbc8;fill-rule:evenodd}</style></defs><path id="gdelivery-truck" class="gcls-1" d="M812.816 1025.33h-6.126a.79.79 0 000 1.58h6.126a.79.79 0 000-1.58zm.524 11.01h-5.6a.785.785 0 100 1.57h5.6a.785.785 0 100-1.57zm-2.094-4.72H804.6a.79.79 0 000 1.58h6.65a.79.79 0 00-.004-1.58zm0 11.01h-.646a.785.785 0 100 1.57h.644a.785.785 0 10.002-1.57zm-3.263 0H804.6a.785.785 0 100 1.57h3.387a.785.785 0 10-.004-1.57zm36.86-19.86h-6.657v-1.42a.784.784 0 00-.786-.78h-12.175a.785.785 0 100 1.57h11.39v17.22a.786.786 0 101.571 0v-15.02h6.657a6.519 6.519 0 016.509 6.52v13.29h-2a4.974 4.974 0 00-9.824 0h-1.345v-1.12a.786.786 0 10-1.571 0v1.12h-8.336a4.974 4.974 0 00-9.823 0h-1.634v-22.01h5.261a.785.785 0 100-1.57h-6.046a.783.783 0 00-.785.78v23.59a.791.791 0 00.785.79h2.419a4.974 4.974 0 009.823 0h11.252a4.974 4.974 0 009.824 0h2.782a.791.791 0 00.785-.79v-14.08a8.094 8.094 0 00-8.076-8.09zm-21.475 25.58a3.41 3.41 0 113.4-3.41 3.411 3.411 0 01-3.4 3.41zm21.075 0a3.411 3.411 0 01-3.4-3.41 3.4 3.4 0 113.4 3.41zm.4-22.44h-4.3a.791.791 0 00-.785.79v7.39a.791.791 0 00.785.79H849a.792.792 0 00.786-.79v-3.23a4.949 4.949 0 00-4.943-4.95zm3.367 7.39h-6.882v-5.81h3.515a3.371 3.371 0 013.367 3.37v2.44zm-24.842 9.61a2.03 2.03 0 102.024 2.03 2.029 2.029 0 00-2.024-2.03zm0 2.49a.46.46 0 01-.455-.46.455.455 0 01.909 0 .46.46 0 01-.454.46zm21.075-2.49a2.03 2.03 0 102.025 2.03 2.03 2.03 0 00-2.025-2.03zm0 2.49a.46.46 0 01-.454-.46.454.454 0 01.908 0 .46.46 0 01-.454.46zm4.552-8.37a.783.783 0 00-.785.78v1.99a.786.786 0 101.571 0v-1.99a.784.784 0 00-.781-.78z" transform="translate(-803.812 -1020.56)"/></svg><svg viewBox="0 0 23 15" id="google" xmlns="http://www.w3.org/2000/svg"><path d="M6.751 14.35c-1.409-.083-2.69-.525-3.823-1.36C1.466 11.911.545 10.474.158 8.7A6.496 6.496 0 01.02 6.768a7.044 7.044 0 011.62-4.102A7.119 7.119 0 015.505.207a5.8 5.8 0 011.19-.186C6.922.013 7.15 0 7.378 0a6.741 6.741 0 013.398.932c.7.4 1.098.808 1.27.932-.717.705-1.405 1.395-2.108 2.086-.522-.45-1.099-.863-2.099-1.016a4.322 4.322 0 00-.613-.044c-2.007 0-3.688 1.45-4.136 3.353a3.942 3.942 0 00-.1 1.298c.153 1.768 1.337 3.218 2.935 3.736a4.177 4.177 0 001.552.179c.753-.048 1.459-.248 2.098-.67 1.075-.732 1.423-1.878 1.425-2.161H7.154l.021-2.77.007-.117h6.754c.364 2.107.036 4.323-1.275 6.056-.907 1.195-2.114 1.948-3.554 2.32a7.734 7.734 0 01-2.356.236zm11.439-4.054v-.07l.019-2.43h-2.507V7.72l.015-1.816v-.07h2.507l.018-2.437v-.069h1.962v.07l-.02 2.437h2.507v.069l-.014 1.816v.076H20.17l-.019 2.43v.07z"/></svg><svg viewBox="0 0 18 18" id="instagram" xmlns="http://www.w3.org/2000/svg"><path d="M3.588 16.94c-1.95-.505-3.114-1.775-3.424-3.75-.23-1.45-.255-8.19.164-9.654C.874 1.629 2.147.51 4.075.193 4.95.05 6.658 0 8.385 0a85.7 85.7 0 014.199.098c1.18.062 2.261.442 3.14 1.284.835.8 1.263 1.802 1.371 2.935.128 1.353.211 7.748-.187 9.247-.533 1.96-1.813 3.12-3.797 3.439-.742.12-2.745.191-4.744.191-2.047 0-4.091-.075-4.779-.254zm.918-15.255c-1.5.172-2.508 1.098-2.747 2.59-.247 1.58-.245 7.492-.06 8.68.19 1.236.89 2.085 2.122 2.43.668.188 2.666.254 4.626.254 1.803 0 3.575-.056 4.24-.13 1.514-.165 2.515-1.097 2.754-2.602.247-1.513.247-7.03.106-8.446-.154-1.513-1.079-2.507-2.575-2.742-.74-.112-2.525-.162-4.3-.162-1.712 0-3.416.047-4.166.128zM4.19 8.597a4.443 4.443 0 014.446-4.406 4.37 4.37 0 014.372 4.413 4.451 4.451 0 01-4.446 4.406A4.366 4.366 0 014.19 8.597zm1.553-.027a2.827 2.827 0 002.803 2.879h.026a2.88 2.88 0 002.876-2.824 2.823 2.823 0 00-2.803-2.88H8.62A2.88 2.88 0 005.744 8.57zm6.444-4.551a1.034 1.034 0 011.03-1.03h.013c.567 0 1.026.464 1.021 1.037a1.043 1.043 0 01-1.043 1.029 1.028 1.028 0 01-1.021-1.036z"/></svg><svg viewBox="0 0.742 19 16.515" id="like-icon"><svg xmlns="http://www.w3.org/2000/svg" width="19" height="18" viewBox="1.983 1.721 17.859 15.523"><path paint-order="stroke fill markers" fill-rule="evenodd" d="M10.913 17.244a.707.707 0 01-.28-.056c-.353-.15-8.65-3.75-8.65-10.76.091-2.65 2.207-4.707 4.818-4.707 1.743 0 3.266.918 4.112 2.31a4.796 4.796 0 014.112-2.31c2.61 0 4.725 2.058 4.817 4.684 0 7.034-8.297 10.634-8.65 10.783a.71.71 0 01-.28.056zM6.8 3.106c-1.847 0-3.343 1.47-3.408 3.346 0 5.408 6.125 8.663 7.52 9.335 1.395-.672 7.52-3.93 7.52-9.358-.065-1.853-1.563-3.323-3.408-3.323s-3.342 1.47-3.408 3.346a.7.7 0 01-.704.67.7.7 0 01-.705-.67C10.143 4.576 8.646 3.106 6.8 3.106z"/></svg></svg><svg viewBox="0 0.5 21 21" id="menu-icon"><svg xmlns="http://www.w3.org/2000/svg" width="21" height="22" viewBox="2 1.589 20.029 20.029"><path paint-order="stroke fill markers" fill-rule="evenodd" d="M4.146 5.88A2.144 2.144 0 012 3.736c0-1.187.96-2.146 2.146-2.146 1.187 0 2.146.959 2.146 2.146 0 1.186-.96 2.146-2.146 2.146zm0 7.87A2.145 2.145 0 012 11.603c0-1.186.96-2.145 2.146-2.145a2.145 2.145 0 110 4.292zm0 7.868A2.144 2.144 0 012 19.472c0-1.187.96-2.146 2.146-2.146 1.187 0 2.146.96 2.146 2.146 0 1.187-.96 2.146-2.146 2.146zM12.014 5.88a2.144 2.144 0 01-2.146-2.146c0-1.187.96-2.146 2.146-2.146 1.187 0 2.146.959 2.146 2.146a2.144 2.144 0 01-2.146 2.146zm0 7.869a2.145 2.145 0 01-2.146-2.147c0-1.186.96-2.145 2.146-2.145 1.187 0 2.146.959 2.146 2.145a2.145 2.145 0 01-2.146 2.147zm0 7.868a2.144 2.144 0 01-2.146-2.146c0-1.187.96-2.146 2.146-2.146 1.187 0 2.146.96 2.146 2.146a2.144 2.144 0 01-2.146 2.146zM19.883 5.88a2.144 2.144 0 01-2.146-2.146c0-1.187.96-2.146 2.146-2.146 1.187 0 2.146.959 2.146 2.146 0 1.186-.96 2.146-2.146 2.146zm0 7.869a2.145 2.145 0 01-2.146-2.147c0-1.186.96-2.145 2.146-2.145a2.145 2.145 0 110 4.292zm0 7.868a2.144 2.144 0 01-2.146-2.146c0-1.187.96-2.146 2.146-2.146 1.187 0 2.146.96 2.146 2.146 0 1.187-.96 2.146-2.146 2.146z"/></svg></svg><svg viewBox="0 0 22 25" id="play" xmlns="http://www.w3.org/2000/svg"><path fill-rule="evenodd" d="M20.684 14.74L4.64 24.536a3.236 3.236 0 01-3.062.144c-.972-.47-1.579-1.387-1.579-2.385V2.7c0-.999.607-1.917 1.579-2.386A3.24 3.24 0 014.64.457l16.044 9.798c.822.502 1.315 1.343 1.315 2.241 0 .9-.493 1.741-1.315 2.244z"/></svg><svg viewBox="0 0 37 38" id="projects" xmlns="http://www.w3.org/2000/svg"><path d="M1.975 37.96a1.985 1.985 0 01-1.973-1.99V8.69c0-.24.095-.472.264-.643L7.742.506a.898.898 0 01.639-.267h19.091c1.087 0 1.972.893 1.972 1.991v2.873c0 .502-.404.91-.902.91a.907.907 0 01-.902-.91V2.23a.169.169 0 00-.168-.17H9.284v5.552c0 1.097-.886 1.99-1.974 1.99H1.807V35.97c0 .093.076.17.168.17h25.497a.17.17 0 00.168-.17V22.067c0-.502.404-.91.902-.91s.902.408.902.91V35.97a1.985 1.985 0 01-1.973 1.991zM3.083 7.782H7.31a.17.17 0 00.168-.17V3.347zM7.06 31.49a.907.907 0 01-.901-.91c0-.503.404-.91.901-.91H11l1.394-5.066a.908.908 0 01.231-.4l.014-.015H7.06a.906.906 0 01-.901-.91c0-.503.404-.91.901-.91h7.384l5.432-5.48H7.059a.906.906 0 01-.901-.91c0-.504.404-.911.901-.911H21.68l8.429-8.503a3.037 3.037 0 014.318 0l1.062 1.07a3.102 3.102 0 010 4.357l-17.485 17.64a.907.907 0 01-.396.234L11.91 31.46c-.028.007-.226.03-.226.03zm5.923-2.218l2.652-.744-1.916-1.933zm1.556-4.424l2.827 2.853L31.8 13.14l-2.828-2.852zM31.384 7.852l-1.136 1.147 2.828 2.853 1.136-1.147a1.27 1.27 0 000-1.782L33.15 7.852a1.24 1.24 0 00-1.766 0z"/></svg><svg viewBox="0 0 44 40" id="revenu" xmlns="http://www.w3.org/2000/svg"><path d="M43.132 15.8c0 3.151-2.298 5.759-5.263 6.153v7.126a2.18 2.18 0 01-1.051 1.887 2.092 2.092 0 01-1.08.304c-.359 0-.718-.094-1.047-.283-5.96-3.423-12.407-5.52-19.185-6.244l4.159 11.785c.235.663.14 1.406-.255 1.986a2.099 2.099 0 01-1.73.925h-4.86a2.123 2.123 0 01-1.986-1.428l-4.84-13.723a3.342 3.342 0 01-1.92-2.664h-1.36c-1.49 0-2.701-1.244-2.701-2.774v-6.096c0-1.53 1.212-2.774 2.701-2.774h1.36c.191-1.658 1.567-2.949 3.232-2.949 0 0 6.628-.03 6.684-.034 7.333-.558 14.298-2.706 20.7-6.383a2.07 2.07 0 012.127.021 2.179 2.179 0 011.052 1.887v7.126c2.964.394 5.262 3.002 5.262 6.152zm-39.08-3.68H2.715a.627.627 0 00-.618.634v6.096c0 .35.278.634.618.634h1.337zm3.18 10.31l5.745.003V9.171h-5.67c-.646 0-1.171.54-1.171 1.203V21.23c0 .489.285.91.693 1.098.15.066.195.076.403.101zm5.997 2.143H8.31l4.484 12.708a.03.03 0 00.027.018h4.858c.009 0 .015 0 .024-.013.01-.013.007-.02.004-.028zM35.786 2.522c0-.016 0-.028-.022-.041-.026-.016-.043-.007-.056 0-6.403 3.678-13.345 5.885-20.648 6.571V22.55c7.303.684 14.245 2.892 20.648 6.57.013.007.03.016.056 0 .022-.013.022-.026.022-.041zM41.05 15.8c0-1.968-1.369-3.614-3.18-3.987v7.974c1.811-.373 3.18-2.019 3.18-3.987z"/></svg><svg viewBox="0 0 17 17" id="search-icon"><svg xmlns="http://www.w3.org/2000/svg" width="17" height="17" viewBox="1.705 1.996 15.296 15.296"><path paint-order="stroke fill markers" fill-rule="evenodd" d="M4.702 8.076c.356-.065.68.13.746.484a2.65 2.65 0 00.78 1.49c.42.388.941.677 1.493.776.325.066.552.39.487.743a.643.643 0 01-.714.516 4.2 4.2 0 01-2.143-1.13 4.164 4.164 0 01-1.136-2.137c-.065-.354.128-.676.487-.742zm3.278-6.08c3.465 0 6.279 2.8 6.279 6.257 0 .93-.203 1.812-.568 2.604l2.336 2.036c1.703 1.747.746 3.266.294 3.717-.422.454-1.994 1.415-3.73-.292l-2.06-2.35c-.78.345-1.64.539-2.548.539-3.468 0-6.278-2.802-6.278-6.257 0-3.456 2.807-6.254 6.275-6.254zm5.546 13.517c.293.324 1.126.867 1.88.226.21-.176.634-1.068-.227-1.873l-2.162-1.88a6.269 6.269 0 01-1.363 1.34l1.872 2.187zM7.98 13.201c2.742 0 4.966-2.216 4.966-4.948S10.722 3.305 7.98 3.305 3.015 5.521 3.015 8.253s2.22 4.948 4.965 4.948z"/></svg></svg><svg viewBox="0 0 49.125 49.13" id="time" xmlns="http://www.w3.org/2000/svg"><defs><style>.pcls-1{fill:#a3bbc8;fill-rule:evenodd}</style></defs><path class="pcls-1" d="M45.406 11.58a.937.937 0 00-1.592.99 22.684 22.684 0 01-32.86 30.14.938.938 0 00-1.125 1.5 24.559 24.559 0 0035.577-32.63zm-23.03 21.94h-7.55l4.743-4.75a12.68 12.68 0 003.744-9.03 5.844 5.844 0 10-11.688 0 .938.938 0 001.875 0 3.969 3.969 0 117.938 0 10.836 10.836 0 01-3.195 7.71l-6.344 6.34a.949.949 0 00-.2 1.03.93.93 0 00.866.57h9.813a.935.935 0 10-.002-1.87zm15.039-6.44h-2.6v-1.52a.938.938 0 00-1.875 0v1.52h-5.286l5.286-8.85v4.21a.938.938 0 101.875 0v-7.62a.957.957 0 00-.456-.8.94.94 0 00-1.286.33l-7.875 13.19a.933.933 0 00-.011.94.951.951 0 00.816.48h6.938v5.5a.938.938 0 001.875 0v-5.5h2.6a.94.94 0 00-.001-1.88zm5.33-22.63a.938.938 0 10-1.875.04l.042 1.75A24.556 24.556 0 007.363 42.09a.93.93 0 00.656.27.92.92 0 00.669-.28.942.942 0 00-.013-1.33A22.679 22.679 0 0124.557 1.88a22.745 22.745 0 0115.107 5.77l-1.843.04a.935.935 0 00.022 1.87h.023l4.06-.09a.934.934 0 00.915-.96z"/></svg></svg>