<?xml version="1.0" encoding="UTF-8"?>
<svg xmlns="http://www.w3.org/2000/svg" xmlns:xlink="http://www.w3.org/1999/xlink" width="40pt" height="40pt" viewBox="0 0 40 40" version="1.1">
<g id="surface1">
<path style=" stroke:none;fill-rule:evenodd;fill:rgb(63.921569%,73.333333%,78.431373%);fill-opacity:1;" d="M 18.839844 39.828125 L 10.34375 37.175781 L 3.023438 39.457031 C 2.203125 39.714844 1.242188 39.585938 0.617188 39.132812 C -0.015625 38.6875 -0.175781 38.007812 0.214844 37.441406 L 6.65625 27.882812 C 7.007812 27.386719 7.863281 27.183594 8.566406 27.433594 C 9.269531 27.679688 9.554688 28.28125 9.203125 28.777344 L 3.597656 37.089844 L 9.171875 35.351562 C 9.914062 35.117188 10.761719 35.117188 11.5 35.351562 L 19.996094 38 L 20.011719 38 L 28.507812 35.351562 C 29.246094 35.121094 30.089844 35.121094 30.828125 35.351562 L 36.402344 37.089844 L 30.800781 28.777344 C 30.511719 28.398438 30.601562 27.929688 31.027344 27.617188 C 31.351562 27.378906 31.820312 27.265625 32.285156 27.320312 C 32.75 27.371094 33.144531 27.582031 33.347656 27.878906 L 39.792969 37.441406 C 40.171875 38.011719 40.007812 38.6875 39.382812 39.136719 C 38.757812 39.585938 37.800781 39.714844 36.984375 39.457031 L 29.675781 37.175781 L 21.167969 39.828125 C 20.425781 40.058594 19.582031 40.058594 18.839844 39.828125 Z M 16.328125 32.917969 L 4 18.4375 C 3.984375 18.421875 3.96875 18.402344 3.957031 18.382812 C 0.605469 13.707031 1.679688 8.058594 6.664062 4.171875 C 11.644531 0.285156 19.507812 -1.042969 26.453125 0.828125 C 33.394531 2.703125 37.988281 7.390625 38.007812 12.632812 C 38.019531 14.632812 37.339844 16.605469 36.039062 18.382812 L 35.992188 18.4375 L 23.671875 32.917969 C 22.898438 33.824219 21.503906 34.378906 20 34.378906 C 18.492188 34.378906 17.097656 33.824219 16.324219 32.917969 Z M 19.789062 1.996094 C 11.570312 2.09375 4.949219 6.773438 4.839844 12.566406 C 4.816406 14.261719 5.378906 15.933594 6.476562 17.445312 L 18.773438 31.898438 C 19.03125 32.203125 19.5 32.390625 20.003906 32.390625 C 20.507812 32.390625 20.976562 32.203125 21.234375 31.898438 L 33.53125 17.445312 C 36.515625 13.316406 35.347656 8.300781 30.652344 5.058594 C 27.816406 3.089844 23.992188 1.988281 20.011719 1.996094 Z M 13.488281 12.632812 C 13.472656 10.773438 15.054688 9.09375 17.488281 8.375 C 19.921875 7.660156 22.730469 8.046875 24.601562 9.355469 C 26.472656 10.667969 27.035156 12.644531 26.027344 14.363281 C 25.019531 16.082031 22.644531 17.203125 20.003906 17.203125 C 16.410156 17.207031 13.492188 15.160156 13.484375 12.632812 Z M 16.332031 12.632812 C 16.324219 13.679688 17.214844 14.628906 18.585938 15.03125 C 19.957031 15.4375 21.539062 15.21875 22.59375 14.480469 C 23.648438 13.742188 23.964844 12.628906 23.398438 11.660156 C 22.832031 10.691406 21.492188 10.0625 20.003906 10.0625 C 17.984375 10.058594 16.339844 11.207031 16.328125 12.632812 Z M 16.332031 12.632812 "/>
</g>
</svg>
