<?xml version="1.0" encoding="UTF-8"?>
<svg xmlns="http://www.w3.org/2000/svg" xmlns:xlink="http://www.w3.org/1999/xlink" width="40pt" height="40pt" viewBox="0 0 40 40" version="1.1">
<g id="surface1">
<path style=" stroke:none;fill-rule:evenodd;fill:rgb(100%,100%,100%);fill-opacity:1;" d="M 1.054688 39.976562 C 0.785156 39.976562 0.523438 39.863281 0.332031 39.65625 C 0.140625 39.453125 0.03125 39.171875 0.03125 38.882812 L 0 15.117188 C 0 15.109375 0 15.101562 0 15.09375 C 0.00390625 14.738281 0.167969 14.40625 0.441406 14.207031 L 6.195312 9.953125 L 6.195312 5.4375 C 6.199219 4.828125 6.660156 4.335938 7.21875 4.34375 L 13.777344 4.34375 L 19.417969 0.171875 C 19.769531 -0.0898438 20.234375 -0.0898438 20.585938 0.171875 L 26.191406 4.339844 L 32.777344 4.339844 C 33.339844 4.335938 33.796875 4.828125 33.800781 5.4375 L 33.800781 10.003906 L 39.53125 14.265625 C 39.726562 14.410156 39.871094 14.625 39.933594 14.875 C 39.957031 14.945312 39.96875 15.019531 39.972656 15.089844 L 40 38.824219 C 39.996094 39.433594 39.539062 39.921875 38.976562 39.921875 Z M 4.050781 37.78125 L 35.921875 37.730469 L 20.015625 24.527344 Z M 2.074219 36.644531 L 14.445312 26.375 L 2.054688 17.207031 Z M 25.558594 26.351562 L 37.945312 36.640625 L 37.921875 17.152344 Z M 8.246094 19.121094 L 16.144531 24.964844 L 19.386719 22.273438 C 19.753906 21.972656 20.257812 21.96875 20.628906 22.261719 L 20.644531 22.273438 L 23.863281 24.945312 L 31.753906 19.070312 L 31.753906 6.535156 L 8.246094 6.535156 L 8.246094 19.125 Z M 2.824219 15.109375 L 6.195312 17.605469 L 6.195312 12.617188 Z M 33.800781 17.546875 L 37.074219 15.113281 L 33.800781 12.675781 Z M 17.382812 4.34375 L 22.601562 4.34375 L 20 2.40625 Z M 13.066406 18.8125 C 12.695312 18.824219 12.351562 18.621094 12.164062 18.273438 C 11.976562 17.929688 11.976562 17.5 12.164062 17.15625 C 12.351562 16.8125 12.695312 16.605469 13.066406 16.617188 L 26.933594 16.617188 C 27.304688 16.605469 27.648438 16.8125 27.835938 17.15625 C 28.023438 17.5 28.023438 17.929688 27.835938 18.273438 C 27.648438 18.621094 27.304688 18.824219 26.933594 18.8125 Z M 13.066406 13.109375 C 12.507812 13.109375 12.058594 12.621094 12.058594 12.015625 C 12.058594 11.410156 12.507812 10.917969 13.066406 10.917969 L 26.933594 10.917969 C 27.492188 10.917969 27.941406 11.410156 27.941406 12.015625 C 27.941406 12.621094 27.492188 13.109375 26.933594 13.109375 Z M 13.066406 13.109375 "/>
</g>
</svg>
