<?xml version="1.0" encoding="UTF-8"?>
<svg xmlns="http://www.w3.org/2000/svg" xmlns:xlink="http://www.w3.org/1999/xlink" width="40pt" height="40pt" viewBox="0 0 40 40" version="1.1">
<g id="surface1">
<path style=" stroke:none;fill-rule:evenodd;fill:rgb(63.921569%,73.333333%,78.431373%);fill-opacity:1;" d="M 14.53125 35.46875 C 14.503906 33.605469 15.820312 31.910156 17.859375 31.179688 C 19.902344 30.453125 22.265625 30.832031 23.84375 32.140625 C 25.421875 33.453125 25.902344 35.4375 25.058594 37.160156 C 24.21875 38.886719 22.21875 40.015625 20 40.015625 C 16.996094 40.027344 14.550781 37.992188 14.53125 35.46875 Z M 16.660156 35.46875 C 16.640625 36.605469 17.441406 37.640625 18.6875 38.085938 C 19.929688 38.53125 21.371094 38.300781 22.335938 37.503906 C 23.296875 36.703125 23.59375 35.496094 23.082031 34.445312 C 22.570312 33.390625 21.351562 32.703125 20 32.699219 C 18.171875 32.691406 16.675781 33.929688 16.660156 35.46875 Z M 29.058594 25.164062 C 29.03125 23.296875 30.347656 21.605469 32.390625 20.875 C 34.433594 20.144531 36.796875 20.527344 38.375 21.835938 C 39.953125 23.148438 40.433594 25.132812 39.589844 26.855469 C 38.746094 28.582031 36.75 29.707031 34.53125 29.710938 C 31.527344 29.722656 29.078125 27.6875 29.058594 25.164062 Z M 31.199219 25.164062 C 31.183594 26.300781 31.984375 27.335938 33.230469 27.78125 C 34.476562 28.226562 35.917969 27.992188 36.878906 27.191406 C 37.84375 26.394531 38.132812 25.183594 37.617188 24.132812 C 37.101562 23.078125 35.882812 22.394531 34.53125 22.394531 C 32.703125 22.386719 31.210938 23.625 31.199219 25.164062 Z M 14.53125 25.164062 C 14.503906 23.296875 15.820312 21.605469 17.859375 20.875 C 19.902344 20.144531 22.265625 20.527344 23.84375 21.835938 C 25.421875 23.148438 25.902344 25.132812 25.058594 26.855469 C 24.21875 28.582031 22.21875 29.707031 20 29.710938 C 16.996094 29.722656 14.550781 27.6875 14.53125 25.164062 Z M 16.660156 25.164062 C 16.640625 26.300781 17.445312 27.332031 18.6875 27.78125 C 19.933594 28.226562 21.371094 27.996094 22.335938 27.195312 C 23.296875 26.398438 23.59375 25.191406 23.082031 24.136719 C 22.570312 23.085938 21.351562 22.394531 20 22.394531 C 18.167969 22.386719 16.675781 23.625 16.660156 25.164062 Z M 0 25.164062 C -0.0273438 23.296875 1.289062 21.605469 3.332031 20.875 C 5.375 20.144531 7.738281 20.527344 9.316406 21.835938 C 10.894531 23.148438 11.371094 25.132812 10.53125 26.855469 C 9.6875 28.582031 7.6875 29.707031 5.46875 29.710938 C 2.46875 29.722656 0.0195312 27.6875 0 25.164062 Z M 2.128906 25.164062 C 2.113281 26.300781 2.914062 27.332031 4.15625 27.78125 C 5.402344 28.226562 6.84375 27.996094 7.804688 27.195312 C 8.769531 26.398438 9.0625 25.191406 8.550781 24.136719 C 8.039062 23.085938 6.824219 22.394531 5.46875 22.394531 C 3.640625 22.386719 2.148438 23.625 2.128906 25.164062 Z M 29.058594 14.855469 C 29.03125 12.992188 30.347656 11.296875 32.390625 10.570312 C 34.433594 9.839844 36.796875 10.21875 38.375 11.53125 C 39.953125 12.84375 40.433594 14.824219 39.589844 16.550781 C 38.746094 18.277344 36.75 19.402344 34.53125 19.402344 C 31.527344 19.414062 29.078125 17.382812 29.058594 14.855469 Z M 31.199219 14.855469 C 31.183594 15.996094 31.984375 17.027344 33.230469 17.472656 C 34.476562 17.917969 35.917969 17.6875 36.878906 16.886719 C 37.84375 16.089844 38.132812 14.878906 37.617188 13.824219 C 37.101562 12.773438 35.882812 12.085938 34.53125 12.089844 C 32.703125 12.082031 31.210938 13.320312 31.199219 14.855469 Z M 14.53125 14.855469 C 14.503906 12.992188 15.820312 11.296875 17.859375 10.570312 C 19.902344 9.839844 22.265625 10.21875 23.84375 11.53125 C 25.421875 12.84375 25.902344 14.824219 25.058594 16.550781 C 24.21875 18.277344 22.21875 19.402344 20 19.402344 C 16.996094 19.414062 14.550781 17.382812 14.53125 14.855469 Z M 16.660156 14.855469 C 16.640625 15.996094 17.441406 17.027344 18.6875 17.472656 C 19.929688 17.917969 21.371094 17.6875 22.335938 16.890625 C 23.296875 16.09375 23.59375 14.882812 23.082031 13.832031 C 22.570312 12.78125 21.351562 12.089844 20 12.089844 C 18.167969 12.082031 16.675781 13.316406 16.660156 14.855469 Z M 0 14.855469 C -0.0273438 12.992188 1.289062 11.296875 3.332031 10.570312 C 5.375 9.839844 7.738281 10.21875 9.316406 11.53125 C 10.894531 12.84375 11.371094 14.824219 10.53125 16.550781 C 9.6875 18.277344 7.6875 19.402344 5.46875 19.402344 C 2.46875 19.414062 0.0195312 17.382812 0 14.855469 Z M 2.128906 14.855469 C 2.113281 15.996094 2.914062 17.027344 4.15625 17.472656 C 5.402344 17.917969 6.84375 17.6875 7.804688 16.890625 C 8.769531 16.09375 9.0625 14.882812 8.550781 13.832031 C 8.039062 12.78125 6.824219 12.089844 5.46875 12.089844 C 3.640625 12.082031 2.144531 13.316406 2.128906 14.855469 Z M 29.058594 4.550781 C 29.03125 2.6875 30.347656 0.992188 32.390625 0.261719 C 34.433594 -0.464844 36.796875 -0.0859375 38.375 1.226562 C 39.953125 2.535156 40.433594 4.519531 39.589844 6.246094 C 38.746094 7.96875 36.75 9.097656 34.53125 9.097656 C 31.527344 9.109375 29.078125 7.078125 29.058594 4.550781 Z M 31.199219 4.550781 C 31.183594 5.691406 31.984375 6.722656 33.230469 7.167969 C 34.476562 7.613281 35.917969 7.382812 36.878906 6.582031 C 37.84375 5.78125 38.132812 4.570312 37.617188 3.519531 C 37.101562 2.46875 35.882812 1.78125 34.53125 1.78125 C 32.703125 1.777344 31.210938 3.015625 31.199219 4.550781 Z M 14.53125 4.550781 C 14.503906 2.6875 15.820312 0.992188 17.859375 0.261719 C 19.902344 -0.464844 22.265625 -0.0859375 23.84375 1.226562 C 25.421875 2.535156 25.902344 4.519531 25.058594 6.246094 C 24.21875 7.96875 22.21875 9.097656 20 9.097656 C 16.996094 9.109375 14.550781 7.078125 14.53125 4.550781 Z M 16.660156 4.550781 C 16.640625 5.6875 17.445312 6.722656 18.6875 7.167969 C 19.933594 7.613281 21.371094 7.382812 22.335938 6.585938 C 23.296875 5.785156 23.59375 4.578125 23.082031 3.527344 C 22.570312 2.472656 21.351562 1.785156 20 1.78125 C 18.167969 1.773438 16.675781 3.011719 16.660156 4.550781 Z M 0 4.550781 C -0.0273438 2.6875 1.289062 0.992188 3.332031 0.261719 C 5.375 -0.464844 7.738281 -0.0859375 9.316406 1.226562 C 10.894531 2.535156 11.371094 4.519531 10.53125 6.246094 C 9.6875 7.96875 7.6875 9.097656 5.46875 9.097656 C 2.46875 9.109375 0.0195312 7.078125 0 4.550781 Z M 2.128906 4.550781 C 2.113281 5.6875 2.914062 6.722656 4.15625 7.167969 C 5.402344 7.613281 6.84375 7.382812 7.804688 6.585938 C 8.769531 5.785156 9.0625 4.578125 8.550781 3.527344 C 8.039062 2.472656 6.824219 1.785156 5.46875 1.78125 C 3.640625 1.773438 2.148438 3.011719 2.128906 4.550781 Z M 2.128906 4.550781 "/>
</g>
</svg>
